# xmcd
# 
# Track frame offsets:
#     150
#     12555
#     24978
#     37916
#     50276
#     60516
#     70924
#     82702
#     96782
#     110189
#     123479
#     135846
#     149036
#     160046
#     171721
#     184666
#     197958
#     210958
#     224183
#     238557
#     251210
#     263805
#     277840
#     292825
#     305392
#     318585
# 
# Disc length: 4515
# 
# Revision: 0
# Processed by: cddbd v1.5.2PL0 Copyright (c) Steve Scherf et al.
# Submitted via: fre:ac v1.0.31
# 
DISCID=7d11a11a
DTITLE=Muddy Waters - Elevate Me Mama
DYEAR=0
DGENRE=Blues
TTITLE0=My Love Strikes Like Lightning
TTITLE1=Five Long Years
TTITLE2=Elevate Me Mama
TTITLE3=You Shook Me
TTITLE4=Messin' With The Man
TTITLE5=I Got My Brand On You
TTITLE6=Read Way Back
TTITLE7=When I Get To Thinking
TTITLE8=Baby I Done Got Wise
TTITLE9=Recipe For Love
TTITLE10=She's Into Something
TTITLE11=Born Lover
TTITLE12=Diamonds At Your Feet
TTITLE13=She's All Right
TTITLE14=I Love The Life I Live, I Live The Life I Love
TTITLE15=All Aboard
TTITLE16=Forty Days And Forty Nights
TTITLE17=Don't Go No Farther
TTITLE18=Rock Me
TTITLE19=Good News
TTITLE20=Mean Mistreater
TTITLE21=Close To You
TTITLE22=She's Nineteen Years Old
TTITLE23=Walkin' Thru The Park
TTITLE24=I Feel So Good
TTITLE25=Got My Mojo Working Pt.1
EXTD=
EXTT0=
EXTT1=
EXTT2=
EXTT3=
EXTT4=
EXTT5=
EXTT6=
EXTT7=
EXTT8=
EXTT9=
EXTT10=
EXTT11=
EXTT12=
EXTT13=
EXTT14=
EXTT15=
EXTT16=
EXTT17=
EXTT18=
EXTT19=
EXTT20=
EXTT21=
EXTT22=
EXTT23=
EXTT24=
EXTT25=
PLAYORDER=
